<?xml version="1.0" encoding="utf-8"?>
<!-- Generator: Adobe Illustrator 21.1.0, SVG Export Plug-In . SVG Version: 6.00 Build 0)  -->
<svg version="1.1" xmlns="http://www.w3.org/2000/svg" xmlns:xlink="http://www.w3.org/1999/xlink" x="0px" y="0px"
	 viewBox="0 0 500 500" style="enable-background:new 0 0 500 500;" xml:space="preserve">
<style type="text/css">
	.st0{display:none;}
	.st1{display:inline;}
</style>
<g id="Layer_1" xmlns:sketch="http://www.bohemiancoding.com/sketch/ns" class="st0">
	<title>logo-square</title>
	<desc>Created with Sketch.</desc>
	<g id="Page-1_1_" sketch:type="MSPage" class="st1">
		<g id="logo-square" sketch:type="MSArtboardGroup">
			<g id="logo-no-bg" transform="translate(2.000000, 19.000000)" sketch:type="MSLayerGroup">
				<g id="Page-1" sketch:type="MSShapeGroup">
					<g id="gitlab_logo">
						
							<g id="g10" transform="translate(248.000000, 228.833300) scale(1, -1) translate(-248.000000, -228.833300) translate(0.000000, 0.333300)">
							<g id="g16">
								<g id="g18-Clipped">
									<g id="g18">
										<g>
										</g>
									</g>
								</g>
							</g>
						</g>
					</g>
				</g>
			</g>
		</g>
	</g>
	<g id="Group" transform="translate(0.666658, 0.666658)" class="st1">
		<g id="g48" transform="translate(156.197863, 1.160267)">
			<path id="path50" d="M93.1,476.7L93.1,476.7l90.7-279.1H2.5L93.1,476.7L93.1,476.7z"/>
		</g>
		<g id="g64" transform="translate(0.088533, 0.255867)">
			<path id="path66" d="M31.5,198.5L31.5,198.5L3.9,283.3c-2.5,7.7,0.2,16.2,6.8,21l238.5,173.3L31.5,198.5L31.5,198.5z"/>
		</g>
		<g id="g72" transform="translate(29.421866, 280.255593)">
			<path id="path74" d="M2.1-81.5h127.1L74.6-249.6c-2.8-8.6-15-8.6-17.9,0L2.1-81.5L2.1-81.5z"/>
		</g>
		<g id="g80" transform="translate(246.307061, 0.255867)">
			<path id="path82" d="M220.8,198.5L220.8,198.5l27.6,84.8c2.5,7.7-0.2,16.2-6.8,21L3,477.6L220.8,198.5L220.8,198.5z"/>
		</g>
		<g id="g84" transform="translate(336.973725, 280.255593)">
			<path id="path86" d="M130.1-81.5H3l54.6-168.1c2.8-8.6,15-8.6,17.9,0L130.1-81.5L130.1-81.5z"/>
		</g>
	</g>
</g>
<g id="Layer_2">
	<title>logo-square</title>
	<desc>Created with Sketch.</desc>
	<g id="Page-1_2_" sketch:type="MSPage">
		<g id="logo-square_1_" sketch:type="MSArtboardGroup">
			<g id="logo-no-bg_1_" transform="translate(2.000000, 19.000000)" sketch:type="MSLayerGroup">
				<g id="Page-1_3_" sketch:type="MSShapeGroup">
					<g id="gitlab_logo_1_">
						
							<g id="g10_1_" transform="translate(248.000000, 228.833300) scale(1, -1) translate(-248.000000, -228.833300) translate(0.000000, 0.333300)">
							<g id="g16_1_">
								<g id="g18-Clipped_1_">
									<g id="g18_1_">
										<g>
										</g>
									</g>
								</g>
							</g>
						</g>
					</g>
				</g>
			</g>
		</g>
	</g>
	<g id="Group_1_" transform="translate(0.666658, 0.666658)">
		<g id="g48_1_" transform="translate(156.197863, 1.160267)">
			<path id="path50_1_" d="M93.1,476.7L93.1,476.7l90.7-279.1H2.5L93.1,476.7L93.1,476.7z"/>
		</g>
		<g id="g64_1_" transform="translate(0.088533, 0.255867)">
			<path id="path66_1_" d="M31.5,198.5L31.5,198.5L3.9,283.3c-2.5,7.7,0.2,16.2,6.8,21l238.5,173.3L31.5,198.5L31.5,198.5z"/>
		</g>
		<g id="g72_1_" transform="translate(29.421866, 280.255593)">
			<path id="path74_1_" d="M2.1-81.5h127.1L74.6-249.6c-2.8-8.6-15-8.6-17.9,0L2.1-81.5L2.1-81.5z"/>
		</g>
		<g id="g80_1_" transform="translate(246.307061, 0.255867)">
			<path id="path82_1_" d="M220.8,198.5L220.8,198.5l27.6,84.8c2.5,7.7-0.2,16.2-6.8,21L3,477.6L220.8,198.5L220.8,198.5z"/>
		</g>
		<g id="g84_1_" transform="translate(336.973725, 280.255593)">
			<path id="path86_1_" d="M130.1-81.5H3l54.6-168.1c2.8-8.6,15-8.6,17.9,0L130.1-81.5L130.1-81.5z"/>
		</g>
	</g>
</g>
</svg>
